<svg id="Capa_1" enable-background="new 0 0 512 512" height="512" viewBox="0 0 512 512" width="512" xmlns="http://www.w3.org/2000/svg"><g><path d="m256 0-20.001 248.142 20.001 263.858c130.567-24.752 225.076-138.861 225.076-271.754v-178.111c-99.204 0-225.076-62.135-225.076-62.135z" fill="#ffb655"/><path d="m30.923 62.135v178.111c0 132.893 94.51 247.002 225.077 271.754v-512c-.003.001-125.873 62.135-225.077 62.135z" fill="#ffde55"/><path d="m256 49.557-20.001 198.585 20.001 217.896c104.853-23.893 180.076-117.51 180.076-225.792v-136.332c-72.338-9.746-145.712-39.169-180.076-54.357z" fill="#e1ebf0"/><path d="m75.924 103.914v136.332c0 108.282 75.223 201.899 180.076 225.792v-416.481c-34.365 15.188-107.738 44.611-180.076 54.357z" fill="#fff5f5"/><path d="m405.913 248.142c.105-2.628.163-5.261.163-7.896v-110.847c-58.722-11.189-114.743-32.189-150.076-47.155l-20.001 185.9z" fill="#5f69e3"/><path d="m256 82.244c-35.333 14.966-91.354 35.966-150.076 47.156v110.846c0 2.635.058 5.268.163 7.896l149.913 20.001z" fill="#4895ff"/><path d="m256 248.142-20.002 78.858 20.002 108.147c41.542-10.996 78.953-35.346 105.923-69.09 26.824-33.559 42.288-75.159 43.99-117.915z" fill="#4895ff"/><path d="m106.086 248.142c1.702 42.757 17.166 84.356 43.99 117.915 26.971 33.744 64.382 58.094 105.923 69.09v-187.005z" fill="#96c8ef"/></g></svg>