<?xml version="1.0" encoding="utf-8"?>
<!-- Generator: Adobe Illustrator 23.1.1, SVG Export Plug-In . SVG Version: 6.00 Build 0)  -->
<svg version="1.1" xmlns="http://www.w3.org/2000/svg" xmlns:xlink="http://www.w3.org/1999/xlink" x="0px" y="0px"
	 viewBox="0 0 364.3 372" style="enable-background:new 0 0 364.3 372;" xml:space="preserve">
<style type="text/css">
	.st0{fill:#2699FB;}
	.st1{fill:#FFFFFF;stroke:#CED4DA;stroke-miterlimit:10;}
	.st2{fill:#15BCF9;}
	.st3{fill:#00B188;}
	.st4{opacity:0.46;fill:none;stroke:#DEE2E6;stroke-width:5;stroke-miterlimit:10;enable-background:new    ;}
	.st5{fill:#000405;}
	.st6{fill:#F9C053;}
	.st7{fill:#66656D;}
	.st8{fill:#8898AA;}
	.st9{fill:#E0E0E2;}
	.st10{fill:#5E72E4;}
	.st11{fill:#F7FAFC;}
	.st12{fill:#2DCE89;}
	.st13{fill:#FFFFFF;}
	.st14{fill:#32325C;}
	.st15{fill:#F8F8FC;}
	.st16{fill:#E2E7F5;}
	.st17{fill:url(#SVGID_1_);}
	.st18{fill:url(#SVGID_2_);}
	.st19{fill:#11CDEF;}
	.st20{fill:url(#SVGID_3_);}
	.st21{fill:url(#SVGID_4_);}
	.st22{fill:#FFFFFF;stroke:#06A978;stroke-width:2;stroke-miterlimit:10;}
	.st23{fill:#06A978;}
	.st24{fill:#F9F9F9;}
	.st25{fill:#E8E8E8;}
	.st26{fill:none;stroke:#06A978;stroke-miterlimit:10;}
</style>
<g id="Layer_2">
</g>
<g id="Capa_3">
	<g>
		<g>
			<path class="st0" d="M146.3,4.8c0,0-36.4,57.3-131.7,31.8c0,0-13.8,270.5,131.7,270.5S278,36.7,278,36.7
				C180.3,62.2,146.3,4.8,146.3,4.8z"/>
			<g>
				<g>
					<circle class="st1" cx="146.3" cy="156" r="75.3"/>
					<g>
						<path class="st2" d="M192.2,142c-2.1-11.1-8.1-20.9-16.4-27.9s-19.1-11.2-30.8-11.2l0,0l0,0l0,0h0h0
							c-11.7,0-22.5,4.2-30.8,11.2c-7.3,6.1-12.8,14.4-15.4,23.8c-0.5,0.3-1,0.6-1.4,1c-0.8,0.8-1.3,1.7-1.4,2.8h-0.1v0.9v0v0v0.8
							h0.1c0.2,1.1,0.7,2.1,1.4,2.8c0.9,0.9,2.2,1.5,3.7,1.5s2.8-0.6,3.7-1.5c0.9-0.9,1.4-2.1,1.5-3.4l0-0.1v-0.3l0,0l0,0l0,0v0
							l0-0.9H106c-0.2-1-0.7-1.9-1.4-2.6c2.4-8,7.1-15,13.3-20.2c7.3-6.1,16.7-9.8,26.9-9.8c10.2,0,19.6,3.7,26.9,9.8
							c6,5,10.6,11.7,13,19.3c0.2,0.7-0.3,1.4-1,1.4h-2.4c-0.5,0-1-0.3-1.1-0.8c-2.4-6.8-6.6-12.7-12.2-17.1
							c-6.2-4.9-13.9-7.8-22.3-8l0,0h-0.9l0,0l0,0l0,0H144l0,0c-8.4,0.2-16.2,3.1-22.3,8c-5.3,4.2-9.4,9.7-11.8,16.1
							c-0.7,0.3-1.4,0.7-1.9,1.2c-0.9,0.9-1.5,2.2-1.5,3.6l0,0l0,0v0.1v0.1l0,0c0,1.4,0.6,2.7,1.5,3.6c0.9,0.9,2.2,1.5,3.7,1.5
							s2.8-0.6,3.7-1.5c0.9-0.9,1.4-2.1,1.5-3.4l0-0.1v-0.2l0,0v-0.1l0-0.9h-0.1c-0.1-0.8-0.5-1.6-1-2.2c2-5.1,5.4-9.6,9.7-13
							c5.3-4.2,12-6.7,19.4-6.7s14,2.5,19.4,6.7c5.3,4.2,9.3,10.1,11,16.9l0.3,1.2c0.2,0.7,0.8,1.1,1.4,1.1h14.5
							c0.7,0,1.2-0.6,1.1-1.3L192.2,142z M100.8,144.5c-0.3,0-0.5-0.1-0.8-0.1c-0.2-0.1-0.4-0.2-0.6-0.4c-0.2-0.2-0.3-0.4-0.4-0.6
							s-0.1-0.5-0.1-0.8c0-0.1,0-0.2,0-0.3c0-0.2,0.1-0.4,0.2-0.6c0.1-0.2,0.2-0.3,0.4-0.5c0.2-0.2,0.4-0.3,0.6-0.4
							c0.2-0.1,0.5-0.1,0.8-0.1c0.3,0,0.5,0.1,0.8,0.1c0.2,0.1,0.4,0.2,0.6,0.4c0.2,0.2,0.3,0.4,0.4,0.7c0.1,0.2,0.1,0.5,0.1,0.7
							c0,0.3-0.1,0.5-0.1,0.8s-0.2,0.4-0.4,0.6c-0.2,0.2-0.4,0.3-0.6,0.4C101.3,144.5,101.1,144.5,100.8,144.5z M111.7,140.6
							c0.3,0,0.5,0.1,0.8,0.1c0.2,0.1,0.4,0.2,0.6,0.4c0.2,0.2,0.3,0.3,0.4,0.5s0.1,0.4,0.2,0.6l0,0.3c0,0.3-0.1,0.5-0.1,0.8
							s-0.2,0.4-0.4,0.6c-0.2,0.2-0.4,0.3-0.6,0.4c-0.2,0.1-0.5,0.1-0.8,0.1c-0.3,0-0.5-0.1-0.8-0.1c-0.2-0.1-0.4-0.2-0.6-0.4
							c-0.2-0.2-0.3-0.4-0.4-0.6s-0.1-0.5-0.1-0.8c0-0.1,0-0.3,0.1-0.4c0.1-0.4,0.3-0.7,0.5-0.9c0.2-0.2,0.4-0.3,0.6-0.4
							C111.2,140.6,111.4,140.6,111.7,140.6z M104.6,138.9L104.6,138.9L104.6,138.9L104.6,138.9z"/>
						<path class="st3" d="M178.3,186.7c-0.3-0.3-0.3-0.8,0-1.1c2.2-2.1,4.1-4.4,5.9-6.9c3.2-4.5,5.5-9.4,7-14.6
							c0.5-0.3,1-0.6,1.4-1c1-0.9,1.5-2.2,1.5-3.7l0,0v-0.1l0-0.9h-0.1c-0.2-1.1-0.7-2-1.4-2.8c-1-0.9-2.2-1.5-3.7-1.5
							s-2.8,0.6-3.7,1.5c-0.8,0.8-1.3,1.7-1.4,2.8h-0.1v0h-0.1l0.1,0.9v0.8h0.1c0.2,1,0.6,1.9,1.3,2.7c-1.3,4.4-3.3,8.5-6,12.3
							c-2.2,3.1-4.8,5.9-7.7,8.3l-1.9,1.5c-0.3,0.3-0.4,0.8-0.1,1.1l13.4,15.3c0.5,0.6,0.1,1.5-0.7,1.5h-30.3c-0.4,0-0.7-0.1-1-0.4
							l-9.4-9.6l-1.1-0.1c-9.2-1-17.6-4.9-24-10.9c-5.5-5.1-9.6-11.5-11.7-18.8c-0.1-0.2,0.1-0.4,0.3-0.4h3.8c0.3,0,0.6,0.2,0.7,0.5
							c2.3,6.9,6.6,13,12.3,17.4c5.9,4.6,13.2,7.6,21.2,8c0.4,0,0.8,0.2,1.1,0.5l8.8,9.1c0.3,0.3,0.6,0.4,1,0.4h19
							c0.5,0,0.8-0.6,0.5-1l-10.9-12.5c-0.2-0.3-0.1-0.7,0.2-0.8c7.9-4.2,14.1-11.2,17.3-19.7c0.8-0.3,1.4-0.7,2-1.2
							c1-0.9,1.5-2.2,1.5-3.7l0,0v-0.1l0-0.9h-0.1c-0.2-1.1-0.7-2-1.4-2.8c-1-0.9-2.2-1.5-3.7-1.5s-2.8,0.6-3.7,1.5
							c-0.8,0.8-1.3,1.7-1.4,2.8H173v0h-0.1l0.1,0.9v0.8h0.1c0.1,0.8,0.5,1.6,1,2.2c-3.3,8.2-9.9,14.7-18.2,17.8l-2.9,1.1
							c-0.6,0.2-0.8,1-0.4,1.5l7.7,8.8c0.2,0.2,0,0.5-0.2,0.5h-4c-0.1,0-0.3-0.1-0.4-0.2l-9.5-9.8h-1.3c-7.3,0-14-2.5-19.4-6.7
							c-5.3-4.2-9.3-10.1-11-16.9l-0.4-1.7c-0.1-0.4-0.4-0.6-0.8-0.6H97.8c-0.4,0-0.7,0.4-0.6,0.8l0.5,2.9
							c1.9,10.3,7.2,19.5,14.6,26.3c7,6.5,16,10.9,25.9,12.3c0.4,0.1,0.7,0.2,1,0.5l9.1,9.4c0.3,0.3,0.8,0.5,1.3,0.5h46.6
							c0.7,0,1-0.8,0.6-1.3L178.3,186.7z M189,157.4c0.3,0,0.5,0.1,0.8,0.1c0.2,0.1,0.4,0.2,0.6,0.4c0.2,0.2,0.3,0.3,0.4,0.5
							s0.1,0.4,0.2,0.6l0,0.3c0,0.3-0.1,0.5-0.1,0.8s-0.2,0.4-0.4,0.6c-0.2,0.2-0.4,0.3-0.6,0.4s-0.5,0.1-0.8,0.1
							c-0.3,0-0.5-0.1-0.8-0.1c-0.2-0.1-0.4-0.2-0.6-0.4s-0.3-0.4-0.4-0.6s-0.1-0.5-0.1-0.8c0-0.1,0-0.3,0.1-0.4
							c0.1-0.4,0.3-0.7,0.5-0.9c0.2-0.2,0.4-0.3,0.6-0.4C188.4,157.5,188.7,157.4,189,157.4z M178.2,161.4c-0.3,0-0.5-0.1-0.8-0.1
							c-0.2-0.1-0.4-0.2-0.6-0.4s-0.3-0.4-0.4-0.6s-0.1-0.5-0.1-0.8c0-0.1,0-0.3,0.1-0.4c0.1-0.4,0.3-0.7,0.5-0.9
							c0.2-0.2,0.4-0.3,0.6-0.4s0.5-0.1,0.8-0.1c0.3,0,0.5,0.1,0.8,0.1c0.2,0.1,0.4,0.2,0.6,0.4c0.2,0.2,0.3,0.3,0.4,0.5
							s0.1,0.4,0.2,0.6l0,0.3c0,0.3-0.1,0.5-0.1,0.8s-0.2,0.4-0.4,0.6c-0.2,0.2-0.4,0.3-0.6,0.4
							C178.7,161.3,178.4,161.4,178.2,161.4z M185.3,163.1L185.3,163.1L185.3,163.1L185.3,163.1z"/>
					</g>
					<circle class="st4" cx="146.3" cy="156" r="83.1"/>
				</g>
			</g>
		</g>
		<g>
			<g>
				<g>
					<g>
						<g>
							<path class="st5" d="M116.2,231.1H49.7c-0.1,0-0.1,0-0.2,0.1c-0.3,0.2-0.6,1.1-0.6,2.1V332c0,1.2,0.3,2.2,0.7,2.2h66.5
								c0.1,0,0.1,0,0.2-0.1l0.3-0.4c0.1-0.4,0.2-1,0.2-1.6v-98.7C116.9,232.1,116.6,231.1,116.2,231.1z M113.1,235.8H52.8
								c-0.3,0-0.6,0.8-0.6,1.8v86c0,1,0.3,1.8,0.6,1.8h60.3c0.3,0,0.6-0.8,0.6-1.8v-86C113.7,236.6,113.4,235.8,113.1,235.8z"/>
						</g>
					</g>
					<path class="st6" d="M113.7,237.6v86c0,1-0.3,1.8-0.6,1.8H52.8c-0.3,0-0.6-0.8-0.6-1.8v-86c0-1,0.3-1.8,0.6-1.8h60.3
						C113.4,235.8,113.7,236.6,113.7,237.6z"/>
					<g>
						<path class="st7" d="M119.3,231.4v96.7c0,0.6-0.1,1.1-0.2,1.5l-0.4,0.7l-2,3.5c0.1-0.4,0.2-1,0.2-1.6v-98.7
							c0-1.2-0.3-2.2-0.7-2.2H49.7c-0.1,0-0.1,0-0.2,0.1l1.9-1.5l0.2-0.1l0.2-0.2c0.1-0.1,0.2-0.1,0.2-0.1h66.5
							C119,229.2,119.3,230.2,119.3,231.4z"/>
					</g>
					<path class="st8" d="M84.7,329.8c0,0.1,0,0.3,0,0.4c-0.2,1.3-1.4,2.3-2.7,2.3c-1.4,0-2.5-1-2.7-2.3c0-0.1,0-0.3,0-0.4
						c0-1.5,1.2-2.8,2.8-2.8C83.5,327.1,84.7,328.3,84.7,329.8z"/>
				</g>
			</g>
			<g>
				<g>
					<g>
						<path class="st7" d="M298.1,315.9v6c0,0.3,0,0.6-0.1,0.9l-23.2,39.5c-0.4,1.1-1.4,1.9-2.6,1.9l-158.9-2
							c-1.5,0-2.6-1.2-2.8-2.5v-5c0.1,1,0.7,1.9,1.7,2.3c0.3,0.1,0.7,0.2,1.1,0.2l158.9,2c1.2,0,2.3-0.8,2.6-1.9l22.3-37.5l1-3
							C298.1,316.4,298.1,316.1,298.1,315.9z"/>
					</g>
					<g>
						<path class="st9" d="M298.1,315.9c0,0.3-0.1,0.5-0.1,0.8l-1,3l-22.3,37.5c-0.4,1.1-1.4,1.9-2.6,1.9l-158.9-2
							c-0.4,0-0.8-0.1-1.1-0.2c-0.9-0.4-1.6-1.3-1.7-2.3v-0.4c0-0.5,0.2-0.9,0.4-1.4l41.4-38.5c0.5-0.8,1.4-1.3,2.3-1.3h140.7
							C297,313.1,298.2,314.4,298.1,315.9z"/>
					</g>
					<g>
						<g>
							<path class="st5" d="M296.4,221.1H155.9c-0.8,0-1.4,0.3-1.9,0.8c-0.5,0.5-0.9,1.2-0.9,2v86.4c0,1.5,1.2,2.8,2.8,2.8h140.4
								c0.5,0,1-0.1,1.5-0.4c0.6-0.4,1-0.9,1.2-1.6c0.1-0.2,0.1-0.5,0.1-0.8v-86.4C299.2,222.3,297.9,221.1,296.4,221.1z
								 M294.7,305.1c0,1.4-1.2,2.5-2.6,2.5H160.3c-1.4,0-2.6-1.1-2.6-2.5V229c0-1.4,1.2-2.5,2.6-2.5h131.8c1.4,0,2.6,1.1,2.6,2.5
								L294.7,305.1L294.7,305.1z"/>
						</g>
					</g>
					<path class="st10" d="M294.7,229v76.1c0,1.4-1.2,2.5-2.6,2.5H160.3c-1.4,0-2.6-1.1-2.6-2.5V229c0-1.4,1.2-2.5,2.6-2.5h131.8
						C293.5,226.6,294.7,227.7,294.7,229z"/>
					<g>
						<path class="st7" d="M302.2,221.9v84.4c0,0.3,0,0.6-0.1,0.9l-1.1,1.4l-1.9,2.5c0.1-0.2,0.1-0.5,0.1-0.8v-86.4
							c0-1.5-1.2-2.8-2.8-2.8H155.9c-0.8,0-1.4,0.3-1.9,0.8l1.3-1.1l1.8-1.1l0,0c0.5-0.4,1.1-0.6,1.8-0.6h140.4
							C300.9,219.1,302.2,220.3,302.2,221.9z"/>
					</g>
					<path class="st11" d="M286.2,320.6c0,0.2,0,0.4-0.1,0.6l-0.7,2.1l-7.2,14.9c-0.3,0.8-1,1.4-1.9,1.4H144.9
						c-0.3,0-0.5-0.1-0.8-0.2c-0.7-0.3-1.1-0.9-1.2-1.6v-0.3c0-0.3,0.1-0.6,0.3-1l16.8-17c0.4-0.6,1-0.9,1.6-0.9h122.6
						C285.4,318.6,286.2,319.5,286.2,320.6z"/>
					<path class="st8" d="M220,343.1c0,0,0,0.1,0,0.2l-0.2,0.6l-9.7,11.1c-0.1,0.2-0.3,0.4-0.5,0.4h-39.2c-0.1,0-0.2,0-0.2,0
						c-0.2-0.1-0.3-0.3-0.4-0.5v-0.1c0-0.1,0-0.2,0.1-0.3l10.9-11.8c0.1-0.2,0.3-0.3,0.5-0.3h38.3C219.8,342.5,220,342.8,220,343.1z
						"/>
				</g>
			</g>
			<g>
				<g>
					<g>
						<g>
							<path class="st5" d="M326.1,272.2h-36.5c-0.1,0-0.1,0-0.2,0.1c-0.3,0.2-0.6,1.1-0.6,2.1v68.7c0,1.2,0.3,2.2,0.7,2.2h36.5
								c0.1,0,0.1,0,0.2-0.1l0.3-0.4c0.1-0.4,0.2-1,0.2-1.6v-68.7C326.9,273.2,326.5,272.2,326.1,272.2z M310.6,341.3
								c-0.2,1.3-1.4,2.3-2.7,2.3c-1.4,0-2.5-1-2.7-2.3c0-0.1,0-0.3,0-0.4c0-1.5,1.2-2.8,2.8-2.8s2.8,1.2,2.8,2.8
								C310.6,341,310.6,341.2,310.6,341.3z M323,276.9h-30.3c-0.3,0-0.6,0.8-0.6,1.8v56c0,1,0.3,1.8,0.6,1.8H323
								c0.3,0,0.6-0.8,0.6-1.8v-56C323.6,277.7,323.3,276.9,323,276.9z"/>
						</g>
					</g>
					<path class="st12" d="M323.6,278.7v56c0,1-0.3,1.8-0.6,1.8h-30.3c-0.3,0-0.6-0.8-0.6-1.8v-56c0-1,0.3-1.8,0.6-1.8H323
						C323.3,276.9,323.6,277.7,323.6,278.7z"/>
					<g>
						<path class="st7" d="M329.2,271.4v67.7c0,0.6-0.1,1.1-0.2,1.5l-0.4,0.7l-2,3.5c0.1-0.4,0.2-1,0.2-1.6v-68.7
							c0-1.2-0.3-2.2-0.7-2.2h-36.5c-0.1,0-0.1,0-0.2,0.1l1.6-1.4l0.4-0.3l0.3-0.2c0.1-0.1,0.2-0.1,0.2-0.1h36.5
							C328.9,270.2,329.2,270.2,329.2,271.4z"/>
					</g>
					<path class="st8" d="M310.6,340.9c0,0.1,0,0.3,0,0.4c-0.2,1.3-1.4,2.3-2.7,2.3c-1.4,0-2.5-1-2.7-2.3c0-0.1,0-0.3,0-0.4
						c0-1.5,1.2-2.8,2.8-2.8C309.4,338.1,310.6,339.4,310.6,340.9z"/>
					<g>
						<g>
							<path class="st13" d="M296.1,324.4h23.6c1.2,0,2.2,1,2.2,2.2v2.4c0,1.2-1,2.2-2.2,2.2H316l2.4,3.6l-5.1-3.6h-17.2
								c-1.2,0-2.2-1-2.2-2.2v-2.4C293.9,325.4,294.9,324.4,296.1,324.4z"/>
							<path class="st14" d="M317.2,326.5h-19.6c-0.3,0-0.6-0.1-0.6-0.3c0-0.2,0.2-0.3,0.5-0.3c0,0,0.1,0,0.1,0h19.6
								c0.3,0,0.6,0.1,0.6,0.3S317.6,326.5,317.2,326.5C317.3,326.5,317.2,326.5,317.2,326.5z"/>
							<path class="st14" d="M317.2,328.1h-19.6c-0.3,0-0.6-0.1-0.6-0.3s0.2-0.3,0.5-0.3c0,0,0.1,0,0.1,0h19.6
								c0.3,0,0.6,0.1,0.6,0.3S317.6,328.1,317.2,328.1C317.3,328.1,317.2,328.1,317.2,328.1z"/>
							<path class="st14" d="M308.1,329.6h-10.6c-0.3,0-0.6-0.1-0.6-0.3c0-0.2,0.2-0.3,0.5-0.3c0,0,0.1,0,0.1,0h10.6
								c0.3,0,0.5,0.2,0.5,0.3C308.6,329.5,308.4,329.6,308.1,329.6z"/>
						</g>
					</g>
					<g>
						<g>
							<path class="st13" d="M319.7,312.9h-23.6c-1.2,0-2.2,1-2.2,2.2v2.4c0,1.2,1,2.2,2.2,2.2h3.6l-2.4,3.6l5.1-3.6h17.2
								c1.2,0,2.2-1,2.2-2.2v-2.4C321.9,313.9,320.9,312.9,319.7,312.9z"/>
							<path class="st14" d="M317.2,315h-19.6c-0.3,0-0.6-0.1-0.6-0.3s0.2-0.3,0.5-0.3c0,0,0.1,0,0.1,0h19.6c0.3,0,0.6,0.1,0.6,0.3
								S317.6,315,317.2,315C317.3,315,317.2,315,317.2,315z"/>
							<path class="st14" d="M317.2,316.5h-19.6c-0.3,0-0.6-0.1-0.6-0.3s0.2-0.3,0.5-0.3c0,0,0.1,0,0.1,0h19.6
								c0.3,0,0.6,0.1,0.6,0.3C317.8,316.4,317.6,316.5,317.2,316.5C317.3,316.5,317.2,316.5,317.2,316.5z"/>
							<path class="st14" d="M308.1,318.1h-10.6c-0.3,0-0.6-0.1-0.6-0.3c0-0.2,0.2-0.3,0.5-0.3c0,0,0.1,0,0.1,0h10.6
								c0.3,0,0.5,0.2,0.5,0.3C308.6,318,308.4,318.1,308.1,318.1z"/>
						</g>
					</g>
				</g>
			</g>
			<g>
				
					<image style="overflow:visible;opacity:0.3;enable-background:new    ;" width="122" height="80" xlink:href="39177AFD1668C5B8.png"  transform="matrix(1 0 0 1 161.2797 228)">
				</image>
				<g>
					<g>
						<path class="st15" d="M176.2,295.4c0,2.1,1.7,3.8,3.8,3.8h92.3c2.1,0,3.8-1.7,3.8-3.8v-51.8h-100V295.4z"/>
						<path class="st0" d="M272.3,235.1H180c-2.1,0-3.8,1.7-3.8,3.8v4.7h100v-4.7C276.2,236.8,274.4,235.1,272.3,235.1z"/>
						<path class="st16" d="M263.3,257.5H198c-2.6,0-4.7-1.3-4.7-2.9v-2.1c0-1.6,2.1-2.9,4.7-2.9h65.3c2.6,0,4.7,1.3,4.7,2.9v2.1
							C268,256.2,265.9,257.5,263.3,257.5z"/>
						<path class="st16" d="M263.3,266.8H198c-2.6,0-4.7-1.3-4.7-2.9v-2.1c0-1.6,2.1-2.9,4.7-2.9h65.3c2.6,0,4.7,1.3,4.7,2.9v2.1
							C268,265.5,265.9,266.8,263.3,266.8z"/>
						<path class="st16" d="M263.3,276.2H198c-2.6,0-4.7-1.3-4.7-2.9v-2.1c0-1.6,2.1-2.9,4.7-2.9h65.3c2.6,0,4.7,1.3,4.7,2.9v2.1
							C268,274.9,265.9,276.2,263.3,276.2z"/>
						<circle class="st0" cx="178.4" cy="244.5" r="11.6"/>
						<path class="st6" d="M232.9,283.6h-20.6c-0.3,0-0.6-0.2-0.6-0.5s0.2-0.6,0.5-0.6c0,0,0.1,0,0.1,0H233c0.3,0,0.6,0.2,0.6,0.5
							S233.4,283.6,232.9,283.6C233,283.6,233,283.6,232.9,283.6z"/>
						<path class="st6" d="M227,286h-14.7c-0.3,0-0.6-0.2-0.6-0.5c0-0.3,0.2-0.6,0.5-0.6c0,0,0.1,0,0.1,0h14.7
							c0.3,0,0.6,0.3,0.5,0.6C227.6,285.7,227.3,286,227,286z"/>
						<path class="st6" d="M227,288.4h-14.7c-0.3,0-0.6-0.2-0.6-0.5c0-0.3,0.2-0.6,0.5-0.6c0,0,0.1,0,0.1,0h14.7
							c0.3,0,0.6,0.3,0.5,0.6C227.6,288.1,227.3,288.4,227,288.4z"/>
						<path class="st6" d="M204.1,283.6h-17.7c-0.3,0-0.5-0.2-0.5-0.5c0-0.3,0.2-0.6,0.5-0.6c0,0,0,0,0.1,0h17.7
							c0.3,0,0.5,0.2,0.5,0.5C204.6,283.3,204.4,283.6,204.1,283.6C204.1,283.6,204.1,283.6,204.1,283.6z"/>
						<path class="st6" d="M206.5,286h-19.9c-0.4,0-0.8-0.2-0.8-0.5s0.3-0.6,0.7-0.6c0,0,0.1,0,0.1,0h19.9c0.4,0,0.8,0.3,0.7,0.6
							C207.2,285.7,206.9,286,206.5,286z"/>
						<path class="st6" d="M202.1,288.4h-15.6c-0.3,0-0.6-0.2-0.7-0.5c0-0.3,0.2-0.6,0.6-0.6c0,0,0.1,0,0.1,0h15.6
							c0.3,0,0.6,0.3,0.6,0.6C202.6,288.1,202.4,288.4,202.1,288.4z"/>
						
							<linearGradient id="SVGID_1_" gradientUnits="userSpaceOnUse" x1="239.2749" y1="-1.2016" x2="282.3154" y2="-11.6449" gradientTransform="matrix(1 0 0 1 0 292)">
							<stop  offset="0.28" style="stop-color:#2699FB"/>
							<stop  offset="0.45" style="stop-color:#5EAEF3"/>
						</linearGradient>
						<path class="st17" d="M260.9,291.5h-15.2c-2.3,0-4.1-1.9-4.1-4.1l0,0c0-2.3,1.9-4.1,4.1-4.1h15.2c2.3,0,4.1,1.9,4.1,4.1l0,0
							C265,289.7,263.1,291.5,260.9,291.5z"/>
						<g>
							<g>
								<path class="st13" d="M171.9,246.6c-0.1-0.7-0.1-1.4-0.1-2.1l0-1l0-0.5c0-0.2,0-0.4,0-0.6c0.1-0.8,0.7-1.5,1.4-1.9
									c0.7-0.4,1.7-0.4,2.4,0c0.7,0.4,1.3,1.1,1.4,1.9c0,0.2,0,0.4,0,0.6l0,0.5l0,1c0,1.4-0.1,2.8-0.1,4.2v0
									c0,0.1-0.1,0.3-0.3,0.3l0,0c-0.7,0-1.3,0-2-0.1c-0.1,0-0.2-0.1-0.2-0.2c0-0.1,0.1-0.2,0.2-0.2c0.7,0,1.3-0.1,2-0.1l-0.3,0.3
									c-0.1-1.4-0.1-2.8-0.1-4.2l0-1l0-0.5c0-0.2,0-0.3,0-0.4c-0.1-0.6-0.5-1-1-1.3c-0.5-0.2-1.1-0.3-1.6,0
									c-0.5,0.2-0.9,0.7-1.1,1.3c0,0.1,0,0.3-0.1,0.4l0,0.5l0,1c0,0.7-0.1,1.4-0.1,2.1c0,0.1-0.1,0.1-0.2,0.1
									C172,246.8,171.9,246.7,171.9,246.6z"/>
							</g>
							<g>
								<path class="st13" d="M174.4,240.1h9.3c1.2,0,2.2,1.1,2.2,2.5v6.3c0,0.1-0.1,0.3-0.2,0.3h-9.1c-0.1,0-0.2-0.1-0.2-0.3V242
									c0-0.1,0-0.1-0.1-0.2l-1.2-1.2C174.8,240.4,174.2,240.1,174.4,240.1z"/>
							</g>
							<g>
								<path class="st13" d="M179.4,252.2H179c-0.4,0-0.8-0.4-0.8-0.8v-2c0-0.4,0.4-0.8,0.8-0.8h0.4c0.4,0,0.8,0.4,0.8,0.8v2
									C180.2,251.8,179.8,252.2,179.4,252.2z"/>
							</g>
							<g>
								<circle class="st0" cx="179.5" cy="243.6" r="1.3"/>
							</g>
							<g>
								<path class="st13" d="M179.6,243.5h-0.2c-0.2,0-0.3-0.1-0.3-0.3v-5.9c0-0.2,0.1-0.3,0.3-0.3h0.2c0.2,0,0.3,0.1,0.3,0.3v5.9
									C179.9,243.3,179.8,243.5,179.6,243.5z"/>
							</g>
							<g>
								<path class="st13" d="M182.7,236.9h-2.3c-0.5,0-1,0.4-1,1v0.6c0,0.5,0.4,1,1,1h2.3c0.5,0,1-0.4,1-1v-0.6
									C183.6,237.3,183.2,236.9,182.7,236.9z"/>
							</g>
						</g>
					</g>
				</g>
			</g>
			<g>
				<path class="st15" d="M57,313.9c0,2.1,1.7,3.8,3.8,3.8h44.3c2.1,0,3.8-1.7,3.8-3.8V252H57L57,313.9L57,313.9z"/>
				<path class="st3" d="M105.1,243.5H60.8c-2.1,0-3.8,1.7-3.8,3.8v4.7h52v-4.7C109,245.2,107.2,243.5,105.1,243.5z"/>
				<g>
					<g>
						
							<linearGradient id="SVGID_2_" gradientUnits="userSpaceOnUse" x1="74.8606" y1="75.8038" x2="74.1338" y2="90.9951" gradientTransform="matrix(1 0 0 -1 0 358)">
							<stop  offset="0" style="stop-color:#F25940"/>
							<stop  offset="0.7768" style="stop-color:#FB6340"/>
						</linearGradient>
						<path class="st18" d="M81.5,268.9l-13.2-2.5l-1-0.2c-0.1,0.8-0.2,1.6-0.2,2.5c0,7,5.1,12.9,11.8,14.1l0,0l0,0l0,0l0.4-2
							L81.5,268.9z"/>
						<path class="st0" d="M81.5,268.9L81.5,268.9L81.5,268.9l-4.2-14l0,0c-2.9,0.9-5.4,2.6-7.2,4.9v0c-1.4,1.8-2.4,4-2.9,6.4l1,0.2
							L81.5,268.9z"/>
						<path class="st12" d="M77.3,255l4.2,14l13.5-4.6l0,0c-1.9-5.8-7.3-10-13.6-10C79.9,254.4,78.6,254.6,77.3,255L77.3,255
							L77.3,255L77.3,255L77.3,255z"/>
						<path class="st19" d="M95,264.4L95,264.4L95,264.4l-13.5,4.6l0,0l14.2-0.2C95.6,267.2,95.4,265.7,95,264.4z"/>
						
							<linearGradient id="SVGID_3_" gradientUnits="userSpaceOnUse" x1="88.2791" y1="76.263" x2="85.8483" y2="90.0614" gradientTransform="matrix(1 0 0 -1 0 358)">
							<stop  offset="0" style="stop-color:#F9AD35"/>
							<stop  offset="0.5467" style="stop-color:#F9B948"/>
							<stop  offset="1" style="stop-color:#F9C053"/>
						</linearGradient>
						<path class="st20" d="M95.6,268.7l-14.2,0.2l-2.3,11.9l-0.4,2c0.8,0.1,1.7,0.2,2.5,0.2c5.4,0,10.1-3,12.5-7.3l0,0
							C95,273.6,95.6,271.3,95.6,268.7L95.6,268.7z"/>
					</g>
				</g>
				<path class="st16" d="M97.4,289.2H65.5c-0.5,0-0.9-0.4-0.9-0.9v-0.4c0-0.5,0.4-0.9,0.9-0.9h31.9c0.5,0,0.9,0.4,0.9,0.9v0.4
					C98.4,288.8,97.9,289.2,97.4,289.2z"/>
				<path class="st16" d="M93.5,293.2h-28c-0.5,0-0.9-0.4-0.9-0.9v-0.4c0-0.5,0.4-0.9,0.9-0.9h28c0.5,0,0.9,0.4,0.9,0.9v0.4
					C94.4,292.8,94,293.2,93.5,293.2z"/>
				<path class="st16" d="M88.1,297.2H65.5c-0.5,0-0.9-0.4-0.9-0.9v-0.4c0-0.5,0.4-0.9,0.9-0.9h22.6c0.5,0,0.9,0.4,0.9,0.9v0.4
					C89,296.8,88.6,297.2,88.1,297.2z"/>
				<path class="st16" d="M95,301.2H65.5c-0.5,0-0.9-0.4-0.9-0.9v-0.4c0-0.5,0.4-0.9,0.9-0.9H95c0.5,0,0.9,0.4,0.9,0.9v0.4
					C95.9,300.8,95.5,301.2,95,301.2z"/>
				
					<linearGradient id="SVGID_4_" gradientUnits="userSpaceOnUse" x1="71.8653" y1="46.6494" x2="106.1146" y2="54.9596" gradientTransform="matrix(1 0 0 -1 0 358)">
					<stop  offset="0.28" style="stop-color:#2699FB"/>
					<stop  offset="0.45" style="stop-color:#5EAEF3"/>
				</linearGradient>
				<path class="st21" d="M89.8,311.4H76.2c-1.4,0-2.5-1.1-2.5-2.5v-0.4c0-1.4,1.1-2.5,2.5-2.5h13.6c1.4,0,2.5,1.1,2.5,2.5v0.4
					C92.3,310.2,91.2,311.4,89.8,311.4z"/>
			</g>
			<g>
				
					<image style="overflow:visible;opacity:0.3;enable-background:new    ;" width="75" height="44" xlink:href="39177AFD1668C5B9.png"  transform="matrix(1 0 0 1 289.2797 275)">
				</image>
				<g>
					<g>
						<path class="st13" d="M352.1,280h-43.6c-2.6,0-4.7,2.1-4.7,4.7v13.5c0,2.6,2.1,4.7,4.7,4.7h7.7l-5,7.6l10.9-7.6h30
							c2.6,0,4.7-2.1,4.7-4.7v-13.5C356.8,282.1,354.7,280,352.1,280z"/>
						<path class="st14" d="M347.4,288.6H324c-0.4,0-0.7-0.2-0.7-0.6c0-0.4,0.2-0.7,0.6-0.7c0,0,0.1,0,0.1,0h23.4
							c0.4,0,0.7,0.2,0.7,0.6c0,0.4-0.2,0.7-0.6,0.7C347.5,288.6,347.5,288.6,347.4,288.6z"/>
						<path class="st14" d="M347.4,292.7H324c-0.4,0-0.7-0.2-0.7-0.6s0.2-0.7,0.6-0.7c0,0,0.1,0,0.1,0h23.4c0.4,0,0.7,0.2,0.7,0.6
							c0,0.4-0.2,0.7-0.6,0.7C347.5,292.8,347.5,292.8,347.4,292.7z"/>
						<path class="st14" d="M336.6,296.9H324c-0.4,0-0.7-0.2-0.7-0.6s0.2-0.7,0.6-0.7c0,0,0.1,0,0.1,0h12.6c0.4,0,0.6,0.4,0.6,0.7
							C337.2,296.6,336.9,296.8,336.6,296.9z"/>
						<circle class="st6" cx="304.7" cy="291.1" r="10.1"/>
						<g>
							<g>
								<g>
									<path class="st13" d="M306.6,295.1c0.5,0.4,1,0.8,1.6,1.2l-0.4,0.2c0-0.4,0-0.9,0-1.3l0-1.3c0-0.1,0-0.2,0.1-0.2l0,0
										c0.7-0.5,1.2-1.1,1.5-1.9c0.3-0.7,0.3-1.6,0-2.3l0,0l-0.1-0.1c0,0,0-0.1,0-0.2v0l0,0l0,0.2c-0.2-0.5-0.6-0.9-1-1.2
										s-0.9-0.6-1.4-0.8c-1-0.4-2.1-0.5-3.2-0.4c-1.1,0.2-2.1,0.6-2.9,1.4c-0.8,0.7-1.2,1.8-1.1,2.9v0l0,0v0
										c0,0.2,0.1,0.5,0.2,0.7s0.2,0.4,0.3,0.6c0.3,0.4,0.6,0.8,1,1.1c0.1,0.1,0.1,0.2,0,0.2s-0.1,0.1-0.2,0
										c-0.4-0.3-0.8-0.7-1.1-1.1c-0.2-0.2-0.3-0.5-0.4-0.7s-0.2-0.5-0.2-0.8v0l0,0v0v0c0-0.3-0.1-0.6-0.1-0.9
										c0-0.2,0-0.3,0.1-0.5c0-0.1,0.1-0.3,0.1-0.5c0.2-0.6,0.6-1.1,1-1.6c0.9-0.9,2-1.4,3.3-1.6c1.2-0.2,2.5-0.1,3.6,0.4
										c0.6,0.2,1.1,0.5,1.6,1c0.5,0.4,0.9,0.9,1.1,1.5l0,0c0,0,0,0.1,0,0.1l0,0l0-0.2l0.1,0.1l0,0l0,0c0.2,0.5,0.3,0.9,0.3,1.4
										c0,0.5-0.1,1-0.3,1.4c-0.2,0.5-0.5,0.9-0.8,1.2c-0.3,0.4-0.7,0.6-1.1,0.9l0.1-0.2l0,1.3c0,0.4,0,0.9,0,1.3v0
										c0,0.1-0.1,0.2-0.2,0.2c0,0-0.1,0-0.1-0.1c-0.5-0.5-1-0.9-1.4-1.4c0,0,0-0.1,0-0.2C306.5,295,306.6,295,306.6,295.1z"/>
								</g>
							</g>
							<g>
								<path class="st13" d="M307.5,289.4h-5.7c-0.1,0-0.3-0.1-0.3-0.3l0,0c0-0.1,0.1-0.3,0.3-0.3h5.7c0.1,0,0.3,0.1,0.3,0.3l0,0
									C307.7,289.3,307.6,289.4,307.5,289.4z"/>
							</g>
							<g>
								<path class="st13" d="M307.5,290.7h-5.7c-0.1,0-0.3-0.1-0.3-0.3l0,0c0-0.1,0.1-0.3,0.3-0.3h5.7c0.1,0,0.3,0.1,0.3,0.3l0,0
									C307.7,290.6,307.6,290.7,307.5,290.7z"/>
							</g>
							<g>
								<path class="st13" d="M307.5,292h-5.7c-0.1,0-0.3-0.1-0.3-0.3l0,0c0-0.1,0.1-0.3,0.3-0.3h5.7c0.1,0,0.3,0.1,0.3,0.3l0,0
									C307.7,291.9,307.6,292,307.5,292z"/>
							</g>
						</g>
					</g>
				</g>
			</g>
			<g>
				
					<image style="overflow:visible;opacity:0.3;enable-background:new    ;" width="69" height="48" xlink:href="39177AFD1668C5BF.png"  transform="matrix(1 0 0 1 3.2797 264)">
				</image>
				<g>
					<g>
						<path class="st22" d="M55.7,302.9H18.7c-4.7,0-8.4-3.8-8.4-8.4v-17c0-4.7,3.8-8.4,8.4-8.4h37.1c4.7,0,8.4,3.8,8.4,8.4v17
							C64.2,299.1,60.4,302.9,55.7,302.9z"/>
						<path class="st23" d="M64.6,280.4H40.6c-1.7,0-3.1-1.4-3.1-3.1v-8.1h18.6c4.6,0,8.4,3.8,8.4,8.4V280.4z"/>
						<path class="st24" d="M58.1,277.7H43.9c-1.1,0-2-0.9-2-2l0,0c0-1.1,0.9-2,2-2h14.3c1.1,0,2,0.9,2,2l0,0
							C60.1,276.8,59.2,277.7,58.1,277.7z"/>
						<path class="st25" d="M56.6,286.5H19.1c-0.9,0-1.6-0.7-1.6-1.6l0,0c0-0.9,0.7-1.6,1.6-1.6h37.4c0.9,0,1.6,0.7,1.6,1.6l0,0
							C58.1,285.8,57.4,286.5,56.6,286.5z"/>
						<path class="st25" d="M56.6,290.6H19.1c-0.9,0-1.6-0.7-1.6-1.6l0,0c0-0.9,0.7-1.6,1.6-1.6h37.4c0.9,0,1.6,0.7,1.6,1.6l0,0
							C58.1,289.9,57.4,290.6,56.6,290.6z"/>
						<path class="st25" d="M56.6,294.8H19.1c-0.9,0-1.6-0.7-1.6-1.6l0,0c0-0.9,0.7-1.6,1.6-1.6h37.4c0.9,0,1.6,0.7,1.6,1.6l0,0
							C58.1,294.1,57.4,294.8,56.6,294.8z"/>
						<path class="st25" d="M56.6,298.9H19.1c-0.9,0-1.6-0.7-1.6-1.6l0,0c0-0.9,0.7-1.6,1.6-1.6h37.4c0.9,0,1.6,0.7,1.6,1.6l0,0
							C58.1,298.2,57.4,298.9,56.6,298.9z"/>
						<g>
							<path class="st23" d="M19.2,274.3c-0.3-0.6-0.7-1.1-1.2-1.4c-0.5-0.3-1.1-0.4-1.7-0.2c-1.1,0.3-1.8,1.5-1.8,2.7
								c0,0.6,0.1,1.2,0.5,1.7c0.2,0.3,0.3,0.5,0.6,0.6s0.5,0.3,0.8,0.3c1.2,0.2,2.6-0.6,2.8-1.8l0,0c0-0.1,0.1-0.2,0.2-0.2
								c0.1,0,0.2,0.1,0.2,0.2c-0.1,0.8-0.6,1.5-1.2,1.9s-1.4,0.7-2.2,0.6c-0.4,0-0.8-0.2-1.1-0.4c-0.4-0.2-0.6-0.5-0.8-0.9
								c-0.4-0.6-0.7-1.4-0.7-2.2c0-0.8,0.2-1.6,0.6-2.2c0.2-0.3,0.5-0.6,0.8-0.9c0.3-0.2,0.7-0.4,1.1-0.5l0.3,0l0.3,0
								c0.2,0,0.4,0,0.6,0.1c0.4,0.1,0.8,0.3,1.1,0.5s0.6,0.5,0.8,0.9c0.2,0.3,0.3,0.6,0.4,1c0,0.1,0,0.2-0.1,0.2
								C19.3,274.4,19.2,274.4,19.2,274.3L19.2,274.3z"/>
						</g>
						<g>
							<path class="st23" d="M21.6,278.4c-0.1-0.5-0.1-1-0.1-1.6c0-0.5-0.1-1-0.1-1.6c-0.1-1-0.1-2.1-0.1-3.1c0-0.3,0.2-0.5,0.5-0.5
								h0c0.7,0,1.3,0,2,0h1c0,0,0.1,0,0.2,0c0.1,0,0.1,0,0.2,0c0.1,0,0.2,0.1,0.3,0.1c0.2,0.1,0.4,0.2,0.5,0.4
								c0.3,0.3,0.5,0.7,0.6,1.1c0,0.2,0,0.4,0,0.6c0,0.2-0.1,0.4-0.2,0.6c-0.2,0.4-0.5,0.6-0.9,0.8c-0.3,0.2-0.7,0.3-1.1,0.3
								l0.2-0.6c0.5,0.4,0.9,0.9,1.3,1.4c0.2,0.3,0.3,0.5,0.4,0.8c0.1,0.3,0.2,0.6,0.3,0.9c0,0.1,0,0.2-0.1,0.3s-0.2,0-0.2-0.1v0
								c-0.1-0.3-0.2-0.5-0.4-0.8s-0.3-0.5-0.5-0.7c-0.3-0.5-0.8-0.9-1.2-1.2c-0.2-0.1-0.2-0.3-0.1-0.5c0.1-0.1,0.2-0.1,0.3-0.1h0
								c0.5,0,1.1-0.4,1.3-0.9c0.1-0.2,0.1-0.4,0.1-0.7c0-0.2-0.2-0.5-0.3-0.6c-0.2-0.2-0.4-0.3-0.5-0.2h-1c-0.7,0-1.3,0-2,0
								l0.5-0.5c0,1,0,2.1-0.1,3.1c0,0.5-0.1,1-0.1,1.6s-0.1,1-0.1,1.6c0,0.1-0.1,0.2-0.2,0.1C21.7,278.6,21.6,278.5,21.6,278.4z"/>
						</g>
						<g>
							<path class="st23" d="M28.9,278.4c-0.1-1-0.1-2.1-0.2-3.1c0-1-0.1-2.1-0.1-3.1c0-0.2,0.2-0.4,0.4-0.4l0,0h0l0.9,0
								c0.2,0,0.3,0.1,0.4,0.3l0,0c0.7,1.6,1.4,3.2,2,4.8l-0.9,0c0.6-1.6,1.2-3.2,1.9-4.8l0,0c0.1-0.2,0.2-0.3,0.4-0.2l0.9,0h0
								c0.2,0,0.4,0.2,0.4,0.4l0,0c0,1,0,2.1-0.1,3.1c0,1-0.1,2.1-0.1,3.1c0,0.1-0.1,0.2-0.2,0.2c-0.1,0-0.2-0.1-0.2-0.2
								c-0.1-1-0.1-2.1-0.1-3.1s-0.1-2.1-0.1-3.1l0.4,0.4l-0.9,0l0.4-0.3c-0.6,1.6-1.2,3.2-1.8,4.8c-0.1,0.2-0.4,0.4-0.6,0.3
								c-0.1,0-0.2-0.1-0.3-0.3l0,0c-0.7-1.6-1.3-3.2-1.9-4.8l0.4,0.3l-0.9,0l0.4-0.4c0,1-0.1,2.1-0.1,3.1c-0.1,1-0.1,2.1-0.2,3.1
								c0,0.1-0.1,0.2-0.2,0.2C29,278.6,28.9,278.5,28.9,278.4z"/>
						</g>
						<line class="st26" x1="10.2" y1="280.4" x2="63.5" y2="280.4"/>
					</g>
				</g>
			</g>
		</g>
	</g>
</g>
</svg>
