<svg id="Capa_1" enable-background="new 0 0 512 512" height="512" viewBox="0 0 512 512" width="512" xmlns="http://www.w3.org/2000/svg"><g><path d="m372.782 0h-116.782l-20.001 234.738 20.001 277.262c130.093-24.662 224.259-138.357 224.259-270.766v-149.709c-46.145-16.182-84.409-49.118-107.477-91.525z" fill="#00aa95"/><path d="m139.218 0c-23.068 42.407-61.332 75.343-107.477 91.525v149.709c0 132.409 94.166 246.104 224.259 270.766v-512z" fill="#00dd80"/><path d="m408.406 128.584c-25.278-15.553-47.552-35.165-66.205-58.289l-4.503-5.583h-81.698l-20.001 170.025 20.001 211.073 3.926-1.065c91.626-24.848 155.619-108.535 155.619-203.511v-108.257z" fill="#b4d2d7"/><path d="m174.301 64.713-4.503 5.582c-18.658 23.129-40.932 42.74-66.204 58.289l-7.14 4.393v108.257c0 94.976 63.993 178.663 155.62 203.511l3.926 1.065v-381.097z" fill="#e1ebf0"/><path d="m323.469 94.713h-67.469l-20.001 299.964c40.483-11.964 94.406-17.413 117.37-50.599 20.421-29.511 32.177-65.141 32.177-102.844v-91.635c-23.246-15.247-44.075-33.664-62.077-54.886z" fill="#e1ebf0"/><path d="m188.53 94.713c-18.005 21.226-38.835 39.642-62.076 54.886v91.635c0 37.702 11.755 73.329 32.174 102.84 22.964 33.188 56.886 38.638 97.371 50.603v-299.964z" fill="#fff5f5"/><path d="m255.999 274.233-20.001 64.767 20.001 75.678h.001c40.483-11.964 74.402-37.417 97.365-70.603-13.729-40.604-52.126-69.842-97.366-69.842z" fill="#5f69e3"/><path d="m158.633 344.073c22.964 33.187 56.882 58.64 97.366 70.604v-140.444c-45.239 0-83.636 29.237-97.366 69.84z" fill="#4895ff"/><path d="m255.999 167.893-20.001 63.171 20.001 63.171c34.888 0 63.171-28.282 63.171-63.171s-28.283-63.171-63.171-63.171z" fill="#ffb655"/><path d="m192.828 231.064c0 34.888 28.283 63.171 63.171 63.171v-126.342c-34.888 0-63.171 28.283-63.171 63.171z" fill="#ffde55"/></g></svg>