<?xml version="1.0" encoding="utf-8"?>
<!-- Generator: Adobe Illustrator 23.1.1, SVG Export Plug-In . SVG Version: 6.00 Build 0)  -->
<svg version="1.1" id="Layer_1" xmlns="http://www.w3.org/2000/svg" xmlns:xlink="http://www.w3.org/1999/xlink" x="0px" y="0px"
	 viewBox="0 0 2000 396" style="enable-background:new 0 0 2000 396;" xml:space="preserve">
<style type="text/css">
	.st0{fill:#15BCF9;}
	.st1{fill:#00B188;}
</style>
<g>
	<g>
		<path class="st0" d="M1634.4,147.6c-7.4-38.8-28.2-72.9-57.3-97.3c-29.1-24.4-66.6-39.1-107.5-39.1l0,0l0,0l0,0h-0.1h-0.1
			c-40.9,0-78.4,14.7-107.5,39.1c-25.5,21.4-44.6,50.2-53.9,83.1c-1.8,0.9-3.4,2-4.8,3.4c-2.6,2.6-4.4,6-5,9.8h-0.3v3v0.1v0.1v2.9
			h0.3c0.6,3.8,2.4,7.2,5,9.8c3.3,3.3,7.8,5.3,12.8,5.3s9.6-2,12.8-5.3c3-3,5-7.2,5.3-11.8l0.1-0.2v-0.9l0,0l0,0l0,0v-0.1l-0.1-3
			h-0.2c-0.6-3.5-2.3-6.7-4.7-9.2c8.3-27.8,24.7-52.2,46.4-70.4c25.5-21.3,58.1-34.1,93.8-34.1c35.7,0,68.4,12.8,93.8,34.1
			c22.2,18.6,38.8,43.6,46.9,72.1h-16.5c-8-24.9-23.3-46.5-43.4-62.4c-21.5-17-48.5-27.3-77.8-28l0,0h-3l0,0l0,0l0,0h-3l0,0
			c-29.3,0.7-56.4,11-77.8,28c-18.4,14.5-32.7,33.9-41.2,56.1c-2.5,0.9-4.7,2.3-6.5,4.1c-3.2,3.2-5.3,7.7-5.3,12.7l0,0l0,0v0.2v0.2
			l0,0c0,4.9,2.1,9.4,5.3,12.7c3.3,3.3,7.8,5.3,12.8,5.3s9.6-2,12.8-5.3c3.1-3.1,5-7.3,5.3-11.9l0.1-0.2v-0.8l0,0v-0.2l-0.1-3.1
			h-0.2c-0.5-2.9-1.7-5.5-3.4-7.7c7.1-17.9,18.9-33.5,33.8-45.3c18.6-14.7,42-23.4,67.5-23.4s48.9,8.7,67.5,23.4
			s32.3,35.3,38.3,58.9l2,8.1h59.5L1634.4,147.6z M1315.7,156.5c-1,0-1.9-0.2-2.7-0.5c-0.8-0.3-1.5-0.8-2.2-1.5s-1.2-1.4-1.5-2.2
			s-0.5-1.6-0.5-2.7c0-0.3,0-0.6,0.1-1.1c0.1-0.8,0.3-1.4,0.7-2c0.3-0.6,0.7-1.2,1.3-1.7c0.7-0.7,1.4-1.2,2.2-1.5
			c0.8-0.3,1.6-0.5,2.7-0.5c1,0,1.9,0.2,2.7,0.5c0.8,0.3,1.5,0.8,2.2,1.5s1.2,1.5,1.5,2.4c0.3,0.8,0.5,1.6,0.5,2.5
			c0,1-0.2,1.9-0.5,2.7s-0.8,1.5-1.5,2.2s-1.4,1.2-2.2,1.5C1317.6,156.3,1316.7,156.5,1315.7,156.5z M1353.8,142.8
			c1,0,1.9,0.2,2.6,0.5c0.8,0.3,1.5,0.8,2.2,1.5c0.6,0.6,1,1.2,1.3,1.8s0.5,1.3,0.6,2.1l0.1,1c0,1-0.2,1.8-0.5,2.6s-0.8,1.5-1.5,2.2
			s-1.4,1.2-2.2,1.5c-0.8,0.3-1.6,0.5-2.7,0.5c-1,0-1.9-0.2-2.7-0.5c-0.8-0.3-1.5-0.8-2.2-1.5s-1.2-1.4-1.5-2.2s-0.5-1.6-0.5-2.7
			c0-0.5,0.1-1,0.2-1.5c0.3-1.3,0.9-2.3,1.8-3.3c0.7-0.7,1.4-1.2,2.2-1.5C1351.9,143,1352.8,142.8,1353.8,142.8z M1329,136.8
			L1329,136.8L1329,136.8L1329,136.8z"/>
		<path class="st1" d="M1653.9,381.5l-69.8-79.8c8.3-7.8,15.9-16.3,22.5-25.8c11.1-15.7,19.3-32.9,24.4-51.1c1.9-0.9,3.6-2,5-3.5
			c3.3-3.3,5.3-7.8,5.3-12.8l0,0v-0.2l-0.1-3h-0.2c-0.7-3.7-2.4-7.1-5-9.6c-3.3-3.3-7.8-5.3-12.8-5.3s-9.6,2-12.8,5.3
			c-2.6,2.6-4.4,6-5,9.8h-0.3v0.1h-0.2l0.2,3.1v2.9h0.3c0.6,3.5,2.2,6.8,4.5,9.3c-4.5,15.2-11.4,29.6-20.8,42.8
			c-7.7,10.9-16.8,20.6-26.9,28.9l-8.6,7l53,60.6h-114.8l-34-35l-3.9-0.4c-32.2-3.4-61.2-17.2-83.8-38.1c-19.5-18-34-41.2-41.4-67.3
			h16.5c8,24.9,23.3,46.5,43.4,62.4c21.1,16.6,47.5,26.9,76.2,27.9l33.7,34.7h73.2l-42.8-48.9c28.6-14.6,51-39.5,62.6-69.7
			c2.6-0.9,4.9-2.3,6.8-4.2c3.3-3.3,5.3-7.8,5.3-12.8l0,0v-0.2l-0.1-3h-0.2c-0.7-3.7-2.4-7.1-5-9.6c-3.3-3.3-7.8-5.3-12.8-5.3
			s-9.6,2-12.8,5.3c-2.6,2.6-4.4,6-5,9.8h-0.3v0.1h-0.2l0.2,3.1v2.9h0.3c0.5,2.9,1.6,5.5,3.3,7.8c-11.4,28.6-34.5,51.4-63.4,62.1
			l-14.6,5.4l31.5,36h-16.8l-33.6-34.6h-4.5c-25.5,0-48.9-8.7-67.5-23.4c-18.6-14.7-32.3-35.3-38.3-58.9l-2-8.1h-59.5l2.4,12.7
			c6.8,36,25.2,67.9,51,91.8c24.9,23,56.8,38.6,92.2,43.2l34.9,36h171.1V381.5z M1623.2,201.6c1,0,1.9,0.2,2.6,0.5
			c0.8,0.3,1.5,0.8,2.2,1.5c0.6,0.6,1,1.2,1.3,1.8s0.5,1.3,0.6,2.1l0.1,1c0,1-0.2,1.8-0.5,2.6s-0.8,1.5-1.5,2.2s-1.4,1.2-2.2,1.5
			c-0.8,0.3-1.6,0.5-2.7,0.5c-1,0-1.9-0.2-2.7-0.5c-0.8-0.3-1.5-0.8-2.2-1.5s-1.2-1.4-1.5-2.2s-0.5-1.6-0.5-2.7c0-0.5,0.1-1,0.2-1.5
			c0.3-1.3,0.9-2.3,1.8-3.3c0.7-0.7,1.4-1.2,2.2-1.5C1621.3,201.8,1622.2,201.6,1623.2,201.6z M1585.5,215.3c-1,0-1.9-0.2-2.7-0.5
			c-0.8-0.3-1.5-0.8-2.2-1.5s-1.2-1.4-1.5-2.2s-0.5-1.6-0.5-2.7c0-0.5,0.1-1,0.2-1.5c0.3-1.3,0.9-2.3,1.8-3.3
			c0.7-0.7,1.4-1.2,2.2-1.5c0.8-0.3,1.6-0.5,2.7-0.5c1,0,1.9,0.2,2.6,0.5c0.8,0.3,1.5,0.8,2.2,1.5c0.6,0.6,1,1.2,1.3,1.8
			s0.5,1.3,0.6,2.1l0.1,1c0,1-0.2,1.8-0.5,2.6s-0.8,1.5-1.5,2.2s-1.4,1.2-2.2,1.5C1587.4,215.1,1586.5,215.3,1585.5,215.3z
			 M1610.4,221.3L1610.4,221.3L1610.4,221.3L1610.4,221.3z"/>
	</g>
	<g>
		<g>
			<path class="st1" d="M1835.2,18h-4.6h-2.5h-12l-78.7,201.1h176.5L1835.2,18z M1793.7,180.6l31.9-83.8l31.9,83.8H1793.7z"/>
			<polygon class="st1" points="1942.4,289.4 1937.8,289.4 1935.4,289.4 1708.9,289.4 1675.8,370.8 1711.4,384.8 1734.2,327.8 
				1916.6,327.8 1939.9,384.8 1975.4,370.8 			"/>
		</g>
		<polygon class="st1" points="24.6,28.7 24.6,56.8 123.9,56.8 123.9,377.1 162.7,377.1 162.7,56.8 262.1,56.8 262.1,18 24.6,18 		
			"/>
		<g>
			<polygon class="st1" points="522.6,285.2 299.2,285.2 266.4,366.1 302.3,380.3 324.8,324 503.8,324 526.8,380.2 562.6,366.1 
				529.8,285.2 			"/>
			<path class="st1" d="M424.2,18h-4.8h-2.5h-12.1l-77.9,199h175.2L424.2,18z M383.7,178.1l30.8-80.8l30.8,80.8H383.7z"/>
		</g>
		<path class="st1" d="M797.2,59.9L797.2,59.9L797.2,59.9z"/>
		<path class="st1" d="M831.8,245.4c-2.8-10-7.4-19.8-14.1-29c-6.7-9.2-15.4-17.6-26.4-25.3c-11-7.6-24.2-14.5-40-20.5l0,0h-0.1
			h-0.1c-15-5.6-30.1-10.6-44.1-15.5c-14.1-4.9-27.1-9.8-37.9-15.3H669l0,0c-5.4-2.7-10.2-5.6-14.4-8.6s-7.6-6.1-10.3-9.4
			c-2.7-3.3-4.8-6.7-6.2-10.5c-1.4-3.7-2.1-7.9-2.2-12.8c0-8.5,1.9-15.4,5.2-21.4c2.5-4.5,5.8-8.5,9.8-12s8.8-6.6,14.1-9
			c10.6-4.9,23.5-7.6,36.3-7.6h0.1c8.7,0,17.4,1.2,25.3,3.4c8,2.2,15.3,5.6,21.2,9.8l0,0c6,4.3,10.8,9.4,14.1,15.4s5.2,13,5.2,21.4
			v10.7H806V98.5l0,0l0,0c0-14.5-3.3-27.5-9.1-38.7c-4.4-8.4-10.2-15.7-16.9-21.8c-6.7-6.2-14.4-11.2-22.7-15.2
			c-16.5-7.9-35.3-11.7-54.1-11.7l0,0c-12.8,0-25.6,1.8-37.8,5.3s-23.7,8.9-33.9,16.1l0,0c-10.1,7.2-18.8,16.4-24.9,27.5
			c-6.1,11.1-9.6,24.1-9.6,38.5l0,0l0,0l0,0l0,0l0,0v0.1c0,8.8,1.4,17,3.9,24.5c2.5,7.5,6.3,14.2,10.9,20.2
			c6.9,9,15.7,16.2,25.5,22.3s20.6,11.2,31.9,15.7l0,0c11.3,4.5,23.1,8.6,34.8,12.5c11.7,4,23.4,7.9,34.4,12.1l0,0
			c11.8,4.6,21.4,9.7,29,15.1c7.6,5.4,13.3,11.2,17.6,17.1s7.2,12.1,9,18.5c1.9,6.4,2.7,13,2.7,19.9c0,6.4-0.7,12.2-2,17.4
			c-1.3,5.2-3.2,9.9-5.6,14.1c-3.6,6.3-8.3,11.7-14.1,16.4c-5.8,4.6-12.5,8.5-20.1,11.5c-15.1,6.1-33.4,9-51.6,9l0,0h-0.1
			c-11.5,0-23.2-1.5-34.3-4.6c-11-3.1-21.3-7.7-30-13.8l0,0c-8.7-6.1-15.8-13.6-20.8-22.7s-7.9-19.7-7.9-32.7v-10.7h-10.7h-28.1
			v10.7l0,0c0,20.3,4.8,38,13,52.7c6.2,11,14.2,20.3,23.4,28s19.4,13.8,30.1,18.4c21.4,9.4,44.6,13.4,65.3,13.4l0,0
			c17.6,0,34.5-2,50.1-6.2s29.9-10.6,42.1-19.5l0,0c12.2-8.9,22.4-20.3,29.3-34.1c7-13.8,10.7-29.8,10.7-47.7V276v-0.1v-0.1
			C835.8,265.8,834.6,255.5,831.8,245.4z"/>
		<path class="st1" d="M606.8,60.1L606.8,60.1L606.8,60.1z"/>
		<path class="st1" d="M817.7,216.5L817.7,216.5L817.7,216.5z"/>
		<path class="st1" d="M825.1,324L825.1,324L825.1,324z"/>
		<polygon class="st1" points="1089.3,28.7 1089.3,124.6 929.4,124.6 929.4,18 890.6,18 890.6,163.4 1128.1,163.4 1128.1,18 
			1089.3,18 		"/>
		<polygon class="st1" points="890.6,377.1 897.6,377.1 929.4,377.1 929.4,366.4 929.4,270.5 1089.3,270.5 1089.3,377.1 
			1128.1,377.1 1128.1,231.7 890.6,231.7 		"/>
		<polygon class="st1" points="1203.2,28.7 1203.2,377.1 1242,377.1 1242,18 1203.2,18 		"/>
	</g>
</g>
</svg>
